MerriweatherSans-BoldItalic.ufo
<glyph name="numbersign" format="1">
  <advance width="1405"/>
  <unicode hex="0023"/>
  <outline>
    <contour>
      <point x="247" y="0" type="line"/>
      <point x="449" y="0" type="line"/>
      <point x="510" y="343" type="line"/>
      <point x="782" y="343" type="line"/>
      <point x="732" y="0" type="line"/>
      <point x="932" y="0" type="line"/>
      <point x="988" y="343" type="line"/>
      <point x="1207" y="343" type="line"/>
      <point x="1221" y="521" type="line"/>
      <point x="1014" y="521" type="line"/>
      <point x="1072" y="874" type="line"/>
      <point x="1296" y="874" type="line"/>
      <point x="1309" y="1048" type="line"/>
      <point x="1097" y="1048" type="line"/>
      <point x="1148" y="1357" type="line"/>
      <point x="943" y="1357" type="line"/>
      <point x="890" y="1048" type="line"/>
      <point x="619" y="1048" type="line"/>
      <point x="667" y="1357" type="line"/>
      <point x="462" y="1357" type="line"/>
      <point x="412" y="1048" type="line"/>
      <point x="200" y="1048" type="line"/>
      <point x="187" y="874" type="line"/>
      <point x="387" y="874" type="line"/>
      <point x="330" y="521" type="line"/>
      <point x="124" y="521" type="line"/>
      <point x="110" y="343" type="line"/>
      <point x="304" y="343" type="line"/>
    </contour>
    <contour>
      <point x="536" y="521" type="line"/>
      <point x="594" y="874" type="line"/>
      <point x="865" y="874" type="line"/>
      <point x="808" y="521" type="line"/>
    </contour>
  </outline>
</glyph>
<glyph name="dollar" format="1">
  <advance width="1204"/>
  <unicode hex="0024"/>
  <outline>
    <contour>
      <point x="632" y="1466" type="line"/>
      <point x="632" y="1466"/>
      <point x="830" y="1466"/>
      <point x="842" y="1466" type="curve"/>
      <point x="892" y="1761" type="line"/>
      <point x="681" y="1761" type="line"/>
    </contour>
    <contour>
      <point x="417" y="49" type="curve"/>
      <point x="365" y="-253" type="line"/>
      <point x="575" y="-253" type="line"/>
      <point x="628" y="50" type="line"/>
      <point x="615" y="50"/>
      <point x="417" y="49"/>
    </contour>
    <contour>
      <point x="101" y="73" type="line"/>
      <point x="146" y="36"/>
      <point x="330" y="-20"/>
      <point x="491" y="-20" type="curve" smooth="yes"/>
      <point x="816" y="-20"/>
      <point x="1037" y="135"/>
      <point x="1032" y="437" type="curve" smooth="yes"/>
      <point x="1028" y="641"/>
      <point x="868" y="768"/>
      <point x="735" y="863" type="curve"/>
      <point x="579" y="978"/>
      <point x="514" y="1038"/>
      <point x="517" y="1165" type="curve" smooth="yes"/>
      <point x="521" y="1286"/>
      <point x="630" y="1331"/>
      <point x="751" y="1331" type="curve" smooth="yes"/>
      <point x="838" y="1331"/>
      <point x="966" y="1300"/>
      <point x="1020" y="1245" type="curve"/>
      <point x="1106" y="1461" type="line"/>
      <point x="1054" y="1498"/>
      <point x="943" y="1546"/>
      <point x="763" y="1546" type="curve" smooth="yes"/>
      <point x="466" y="1546"/>
      <point x="248" y="1382"/>
      <point x="254" y="1114" type="curve" smooth="yes"/>
      <point x="258" y="905"/>
      <point x="407" y="770"/>
      <point x="546" y="673" type="curve"/>
      <point x="701" y="566"/>
      <point x="750" y="487"/>
      <point x="750" y="387" type="curve" smooth="yes"/>
      <point x="750" y="256"/>
      <point x="639" y="197"/>
      <point x="484" y="197" type="curve" smooth="yes"/>
      <point x="370" y="197"/>
      <point x="236" y="249"/>
      <point x="186" y="294" type="curve"/>
    </contour>
  </outline>
</glyph>
<glyph name="asterisk" format="1">
  <advance width="1366"/>
  <unicode hex="002A"/>
  <outline>
    <contour>
      <point x="284" y="787" type="line"/>
      <point x="554" y="975" type="line"/>
      <point x="670" y="1066" type="line"/>
      <point x="635" y="925" type="line"/>
      <point x="567" y="614" type="line"/>
      <point x="788" y="613" type="line"/>
      <point x="781" y="925" type="line"/>
      <point x="770" y="1066" type="line"/>
      <point x="872" y="975" type="line"/>
      <point x="1101" y="789" type="line"/>
      <point x="1234" y="976" type="line"/>
      <point x="957" y="1099" type="line"/>
      <point x="832" y="1149" type="line"/>
      <point x="967" y="1200" type="line"/>
      <point x="1270" y="1325" type="line"/>
      <point x="1183" y="1513" type="line"/>
      <point x="909" y="1325" type="line"/>
      <point x="788" y="1237" type="line"/>
      <point x="826" y="1376" type="line"/>
      <point x="894" y="1687" type="line"/>
      <point x="679" y="1687" type="line"/>
      <point x="682" y="1376" type="line"/>
      <point x="688" y="1237" type="line"/>
      <point x="589" y="1325" type="line"/>
      <point x="351" y="1512" type="line"/>
      <point x="229" y="1325" type="line"/>
      <point x="506" y="1200" type="line"/>
      <point x="631" y="1150" type="line"/>
      <point x="495" y="1099" type="line"/>
      <point x="192" y="976" type="line"/>
    </contour>
  </outline>
</glyph>
<glyph name="four" format="1">
  <advance width="1284"/>
  <unicode hex="0034"/>
  <outline>
    <contour>
      <point x="11" y="129" type="curve"/>
      <point x="68" y="0" type="line"/>
      <point x="674" y="0" type="line"/>
      <point x="625" y="-375" type="line"/>
      <point x="884" y="-375" type="line"/>
      <point x="931" y="0" type="line"/>
      <point x="1156" y="0" type="line"/>
      <point x="1185" y="218" type="line"/>
      <point x="959" y="203" type="line"/>
      <point x="1014" y="649" type="line"/>
      <point x="756" y="614" type="line"/>
      <point x="701" y="194" type="line"/>
      <point x="291" y="177" type="line"/>
      <point x="370" y="282" type="line"/>
      <point x="923" y="1167" type="line"/>
      <point x="811" y="1256" type="line"/>
      <point x="639" y="1256" type="line"/>
      <point x="431" y="848"/>
      <point x="223" y="495"/>
    </contour>
  </outline>
</glyph>
<glyph name="five" format="1">
  <advance width="1146"/>
  <unicode hex="0035"/>
  <outline>
    <contour>
      <point x="70" y="-153" type="curve"/>
      <point x="40" y="-339" type="line"/>
      <point x="80" y="-353"/>
      <point x="137" y="-356"/>
      <point x="170" y="-356" type="curve" smooth="yes"/>
      <point x="645" y="-356"/>
      <point x="1004" y="-132"/>
      <point x="1004" y="225" type="curve" smooth="yes"/>
      <point x="1004" y="467"/>
      <point x="865" y="593"/>
      <point x="624" y="593" type="curve" smooth="yes"/>
      <point x="546" y="593"/>
      <point x="453" y="578"/>
      <point x="401" y="561" type="curve"/>
      <point x="498" y="921" type="line"/>
      <point x="1005" y="921" type="line"/>
      <point x="1065" y="1159" type="line"/>
      <point x="877" y="1159" type="line"/>
      <point x="855" y="1143" type="line"/>
      <point x="288" y="1143" type="line"/>
      <point x="131" y="454" type="line"/>
      <point x="230" y="349" type="line"/>
      <point x="294" y="379"/>
      <point x="402" y="402"/>
      <point x="474" y="402" type="curve" smooth="yes"/>
      <point x="632" y="402"/>
      <point x="693" y="320"/>
      <point x="693" y="186" type="curve" smooth="yes"/>
      <point x="693" y="-64"/>
      <point x="396" y="-160"/>
      <point x="149" y="-160" type="curve" smooth="yes"/>
      <point x="126" y="-160"/>
      <point x="101" y="-158"/>
    </contour>
  </outline>
</glyph>
<glyph name="D" format="1">
  <advance width="1400"/>
  <unicode hex="0044"/>
  <outline>
    <contour>
      <point x="214" y="0" type="line"/>
      <point x="273" y="0"/>
      <point x="360" y="-5"/>
      <point x="417" y="-9" type="curve" smooth="yes"/>
      <point x="461" y="-13"/>
      <point x="513" y="-16"/>
      <point x="546" y="-16" type="curve" smooth="yes"/>
      <point x="1068" y="-22"/>
      <point x="1362" y="415"/>
      <point x="1357" y="927" type="curve" smooth="yes"/>
      <point x="1354" y="1295"/>
      <point x="1193" y="1546"/>
      <point x="778" y="1546" type="curve" smooth="yes"/>
      <point x="683" y="1546"/>
      <point x="510" y="1530"/>
      <point x="422" y="1530" type="curve"/>
      <point x="529" y="1322" type="line"/>
      <point x="560" y="1333"/>
      <point x="657" y="1343"/>
      <point x="712" y="1343" type="curve" smooth="yes"/>
      <point x="963" y="1343"/>
      <point x="1069" y="1245"/>
      <point x="1072" y="922" type="curve" smooth="yes"/>
      <point x="1075" y="554"/>
      <point x="926" y="195"/>
      <point x="592" y="189" type="curve" smooth="yes"/>
      <point x="512" y="187"/>
      <point x="431" y="200"/>
      <point x="381" y="220" type="curve"/>
    </contour>
    <contour>
      <point x="91" y="0" type="line"/>
      <point x="367" y="0" type="line"/>
      <point x="573" y="1530" type="line"/>
      <point x="297" y="1530" type="line"/>
    </contour>
    <contour>
      <point x="862" y="-168" type="move" name="btm"/>
    </contour>
    <contour>
      <point x="796" y="1700" type="move" name="top"/>
    </contour>
  </outline>
</glyph>
<glyph name="K" format="1">
  <advance width="1291"/>
  <unicode hex="004B"/>
  <outline>
    <contour>
      <point x="91" y="0" type="line"/>
      <point x="367" y="0" type="line"/>
      <point x="573" y="1530" type="line"/>
      <point x="297" y="1530" type="line"/>
    </contour>
    <contour>
      <point x="766" y="323" type="curve"/>
      <point x="842" y="167"/>
      <point x="910" y="27"/>
      <point x="928" y="1" type="curve"/>
      <point x="1256" y="-1" type="line"/>
      <point x="1191" y="100"/>
      <point x="1125" y="217"/>
      <point x="1059" y="342" type="curve" smooth="yes"/>
      <point x="957" y="532"/>
      <point x="853" y="740"/>
      <point x="742" y="925" type="curve"/>
      <point x="549" y="769" type="line"/>
      <point x="569" y="737"/>
      <point x="720" y="410"/>
    </contour>
    <contour>
      <point x="377" y="401" type="line"/>
      <point x="1394" y="1530" type="line"/>
      <point x="1076" y="1530" type="line"/>
      <point x="390" y="708" type="line"/>
    </contour>
    <contour>
      <point x="613" y="-168" type="move" name="btm"/>
    </contour>
    <contour>
      <point x="941" y="1702" type="move" name="top"/>
    </contour>
  </outline>
</glyph>
<glyph name="O" format="1">
  <advance width="1386"/>
  <unicode hex="004F"/>
  <outline>
    <contour>
      <point x="609" y="-16" type="curve" smooth="yes"/>
      <point x="1054" y="-16"/>
      <point x="1339" y="413"/>
      <point x="1335" y="934" type="curve" smooth="yes"/>
      <point x="1332" y="1268"/>
      <point x="1161" y="1546"/>
      <point x="818" y="1546" type="curve" smooth="yes"/>
      <point x="376" y="1546"/>
      <point x="82" y="1120"/>
      <point x="87" y="594" type="curve" smooth="yes"/>
      <point x="90" y="260"/>
      <point x="262" y="-16"/>
    </contour>
    <contour>
      <point x="639" y="193" type="curve" smooth="yes"/>
      <point x="463" y="193"/>
      <point x="376" y="313"/>
      <point x="372" y="622" type="curve" smooth="yes"/>
      <point x="369" y="965"/>
      <point x="530" y="1335"/>
      <point x="783" y="1335" type="curve" smooth="yes"/>
      <point x="959" y="1335"/>
      <point x="1047" y="1218"/>
      <point x="1050" y="909" type="curve" smooth="yes"/>
      <point x="1053" y="553"/>
      <point x="892" y="193"/>
    </contour>
    <contour>
      <point x="611" y="-170" type="move" name="btm"/>
    </contour>
    <contour>
      <point x="844" y="1700" type="move" name="top"/>
    </contour>
  </outline>
</glyph>
<glyph name="S" format="1">
  <advance width="1051"/>
  <unicode hex="0053"/>
  <outline>
    <contour>
      <point x="12" y="78" type="line"/>
      <point x="57" y="41"/>
      <point x="232" y="-16"/>
      <point x="393" y="-16" type="curve" smooth="yes"/>
      <point x="718" y="-16"/>
      <point x="950" y="137"/>
      <point x="948" y="440" type="curve" smooth="yes"/>
      <point x="946" y="639"/>
      <point x="788" y="765"/>
      <point x="656" y="862" type="curve" smooth="yes"/>
      <point x="516" y="963"/>
      <point x="439" y="1032"/>
      <point x="444" y="1160" type="curve" smooth="yes"/>
      <point x="448" y="1281"/>
      <point x="553" y="1331"/>
      <point x="677" y="1331" type="curve" smooth="yes"/>
      <point x="765" y="1331"/>
      <point x="885" y="1301"/>
      <point x="940" y="1245" type="curve"/>
      <point x="1027" y="1461" type="line"/>
      <point x="976" y="1498"/>
      <point x="856" y="1546"/>
      <point x="675" y="1546" type="curve" smooth="yes"/>
      <point x="379" y="1546"/>
      <point x="173" y="1382"/>
      <point x="176" y="1113" type="curve" smooth="yes"/>
      <point x="178" y="909"/>
      <point x="324" y="774"/>
      <point x="461" y="677" type="curve" smooth="yes"/>
      <point x="616" y="568"/>
      <point x="665" y="497"/>
      <point x="664" y="397" type="curve" smooth="yes"/>
      <point x="663" y="267"/>
      <point x="558" y="203"/>
      <point x="403" y="203" type="curve" smooth="yes"/>
      <point x="289" y="203"/>
      <point x="150" y="257"/>
      <point x="100" y="302" type="curve"/>
    </contour>
    <contour>
      <point x="443" y="-170" type="move" name="btm"/>
    </contour>
    <contour>
      <point x="669" y="1700" type="move" name="top"/>
    </contour>
  </outline>
</glyph>
<glyph name="asciicircum" format="1">
  <advance width="1364"/>
  <unicode hex="005E"/>
  <outline>
    <contour>
      <point x="151" y="510" type="line"/>
      <point x="376" y="510" type="line"/>
      <point x="764" y="1249" type="line"/>
      <point x="945" y="510" type="line"/>
      <point x="1166" y="510" type="line"/>
      <point x="904" y="1531" type="line"/>
      <point x="672" y="1531" type="line"/>
    </contour>
  </outline>
</glyph>
<glyph name="grave" format="1">
  <advance width="544"/>
  <unicode hex="0060"/>
  <outline>
    <contour>
      <point x="407" y="1234" type="curve"/>
      <point x="511" y="1318" type="line"/>
      <point x="200" y="1744" type="line"/>
      <point x="19" y="1575" type="line"/>
      <point x="69" y="1485"/>
      <point x="305" y="1274"/>
    </contour>
    <contour>
      <point x="436" y="1255" type="move" name="_top"/>
    </contour>
  </outline>
</glyph>
<glyph name="a" format="1">
  <advance width="1207"/>
  <unicode hex="0061"/>
  <outline>
    <contour>
      <point x="727" y="0" type="line"/>
      <point x="973" y="0" type="line"/>
      <point x="1132" y="1156" type="line"/>
      <point x="850" y="1082" type="line"/>
      <point x="743" y="324" type="line"/>
      <point x="742" y="233" type="line"/>
    </contour>
    <contour>
      <point x="399" y="-16" type="curve" smooth="yes"/>
      <point x="631" y="-16"/>
      <point x="771" y="238"/>
      <point x="797" y="351" type="curve"/>
      <point x="789" y="544" type="line"/>
      <point x="748" y="427"/>
      <point x="620" y="180"/>
      <point x="479" y="180" type="curve" smooth="yes"/>
      <point x="405" y="180"/>
      <point x="363" y="261"/>
      <point x="363" y="437" type="curve" smooth="yes"/>
      <point x="363" y="676"/>
      <point x="472" y="980"/>
      <point x="718" y="980" type="curve" smooth="yes"/>
      <point x="808" y="980"/>
      <point x="888" y="961"/>
      <point x="934" y="906" type="curve"/>
      <point x="1010" y="1108" type="line"/>
      <point x="950" y="1130"/>
      <point x="835" y="1156"/>
      <point x="746" y="1156" type="curve" smooth="yes"/>
      <point x="287" y="1156"/>
      <point x="76" y="755"/>
      <point x="76" y="414" type="curve" smooth="yes"/>
      <point x="76" y="169"/>
      <point x="167" y="-16"/>
    </contour>
    <contour>
      <point x="1131" y="1662" type="move" name="caron"/>
    </contour>
    <contour>
      <point x="754" y="1257" type="move" name="top"/>
    </contour>
  </outline>
</glyph>
<glyph name="h" format="1">
  <advance width="1256"/>
  <unicode hex="0068"/>
  <outline>
    <contour>
      <point x="83" y="0" type="line"/>
      <point x="354" y="0" type="line"/>
      <point x="458" y="761" type="line"/>
      <point x="464" y="879" type="line"/>
      <point x="505" y="1116" type="line"/>
      <point x="569" y="1636" type="line"/>
      <point x="297" y="1636" type="line"/>
    </contour>
    <contour>
      <point x="410" y="640" type="line"/>
      <point x="479" y="792"/>
      <point x="645" y="931"/>
      <point x="755" y="931" type="curve" smooth="yes"/>
      <point x="814" y="931"/>
      <point x="850" y="911"/>
      <point x="848" y="821" type="curve" smooth="yes"/>
      <point x="846" y="755"/>
      <point x="832" y="645"/>
      <point x="814" y="512" type="curve" smooth="yes"/>
      <point x="792" y="347"/>
      <point x="763" y="154"/>
      <point x="742" y="0" type="curve"/>
      <point x="1018" y="0" type="line"/>
      <point x="1039" y="145"/>
      <point x="1069" y="343"/>
      <point x="1093" y="513" type="curve" smooth="yes"/>
      <point x="1115" y="673"/>
      <point x="1133" y="806"/>
      <point x="1133" y="860" type="curve" smooth="yes"/>
      <point x="1133" y="1076"/>
      <point x="1043" y="1156"/>
      <point x="883" y="1156" type="curve" smooth="yes"/>
      <point x="673" y="1156"/>
      <point x="479" y="981"/>
      <point x="391" y="781" type="curve"/>
    </contour>
    <contour>
      <point x="814" y="1498" type="move" name="top"/>
    </contour>
    <contour>
      <point x="250" y="1859" type="move" name="cap"/>
    </contour>
  </outline>
</glyph>
<glyph name="q" format="1">
  <advance width="1219"/>
  <unicode hex="0071"/>
  <outline>
    <contour>
      <point x="643" y="-499" type="line"/>
      <point x="916" y="-499" type="line"/>
      <point x="1136" y="1159" type="line"/>
      <point x="849" y="1082" type="line"/>
      <point x="755" y="394" type="line"/>
      <point x="758" y="280" type="line"/>
      <point x="710" y="2" type="line"/>
    </contour>
    <contour>
      <point x="398" y="-16" type="curve" smooth="yes"/>
      <point x="630" y="-16"/>
      <point x="775" y="238"/>
      <point x="801" y="351" type="curve"/>
      <point x="793" y="544" type="line"/>
      <point x="752" y="427"/>
      <point x="619" y="182"/>
      <point x="478" y="182" type="curve" smooth="yes"/>
      <point x="404" y="182"/>
      <point x="362" y="261"/>
      <point x="362" y="437" type="curve" smooth="yes"/>
      <point x="362" y="676"/>
      <point x="476" y="980"/>
      <point x="722" y="980" type="curve" smooth="yes"/>
      <point x="812" y="980"/>
      <point x="892" y="962"/>
      <point x="938" y="907" type="curve"/>
      <point x="1014" y="1109" type="line"/>
      <point x="954" y="1131"/>
      <point x="839" y="1156"/>
      <point x="750" y="1156" type="curve" smooth="yes"/>
      <point x="291" y="1156"/>
      <point x="75" y="755"/>
      <point x="75" y="414" type="curve" smooth="yes"/>
      <point x="75" y="169"/>
      <point x="166" y="-16"/>
    </contour>
    <contour>
      <point x="734" y="1257" type="move" name="top"/>
    </contour>
    <contour>
      <point x="515" y="1620" type="move" name="cr"/>
    </contour>
  </outline>
</glyph>
<glyph name="s" format="1">
  <advance width="925"/>
  <unicode hex="0073"/>
  <outline>
    <contour>
      <point x="50" y="48" type="line"/>
      <point x="87" y="18"/>
      <point x="230" y="-16"/>
      <point x="363" y="-16" type="curve" smooth="yes"/>
      <point x="596" y="-16"/>
      <point x="797" y="78"/>
      <point x="797" y="313" type="curve" smooth="yes"/>
      <point x="797" y="464"/>
      <point x="704" y="549"/>
      <point x="586" y="643" type="curve" smooth="yes"/>
      <point x="490" y="724"/>
      <point x="426" y="762"/>
      <point x="426" y="849" type="curve" smooth="yes"/>
      <point x="426" y="920"/>
      <point x="489" y="959"/>
      <point x="585" y="959" type="curve" smooth="yes"/>
      <point x="700" y="959"/>
      <point x="788" y="904"/>
      <point x="812" y="877" type="curve"/>
      <point x="850" y="1118" type="line"/>
      <point x="819" y="1131"/>
      <point x="707" y="1156"/>
      <point x="588" y="1156" type="curve" smooth="yes"/>
      <point x="347" y="1156"/>
      <point x="167" y="1039"/>
      <point x="167" y="834" type="curve" smooth="yes"/>
      <point x="167" y="679"/>
      <point x="250" y="595"/>
      <point x="346" y="513" type="curve" smooth="yes"/>
      <point x="443" y="431"/>
      <point x="531" y="379"/>
      <point x="531" y="295" type="curve" smooth="yes"/>
      <point x="531" y="205"/>
      <point x="451" y="182"/>
      <point x="364" y="182" type="curve" smooth="yes"/>
      <point x="257" y="182"/>
      <point x="137" y="241"/>
      <point x="97" y="274" type="curve"/>
    </contour>
    <contour>
      <point x="377" y="-168" type="move" name="btm"/>
    </contour>
    <contour>
      <point x="590" y="1257" type="move" name="top"/>
    </contour>
  </outline>
</glyph>
<glyph name="v" format="1">
  <advance width="1073"/>
  <unicode hex="0076"/>
  <outline>
    <contour>
      <point x="260" y="-19" type="line"/>
      <point x="487" y="-7" type="line"/>
      <point x="577" y="96" type="line" smooth="yes"/>
      <point x="816" y="326"/>
      <point x="1037" y="660"/>
      <point x="1050" y="994" type="curve" smooth="yes"/>
      <point x="1052" y="1070"/>
      <point x="1048" y="1109"/>
      <point x="1045" y="1140" type="curve"/>
      <point x="788" y="1140" type="line"/>
      <point x="790" y="1066"/>
      <point x="769" y="902"/>
      <point x="756" y="836" type="curve" smooth="yes"/>
      <point x="715" y="628"/>
      <point x="648" y="490"/>
      <point x="555" y="342" type="curve" smooth="yes"/>
      <point x="459" y="215" type="line"/>
      <point x="447" y="417" type="line"/>
      <point x="382" y="1140" type="line"/>
      <point x="98" y="1140" type="line"/>
      <point x="204" y="357" type="line"/>
    </contour>
    <contour>
      <point x="631" y="1257" type="move" name="top"/>
    </contour>
  </outline>
</glyph>
<glyph name="w" format="1">
  <advance width="1713"/>
  <unicode hex="0077"/>
  <outline>
    <contour>
      <point x="265" y="-19" type="line"/>
      <point x="490" y="-7" type="line"/>
      <point x="576" y="96" type="line" smooth="yes"/>
      <point x="739" y="262"/>
      <point x="855" y="488"/>
      <point x="929" y="695" type="curve"/>
      <point x="787" y="897" type="line"/>
      <point x="751" y="678"/>
      <point x="656" y="490"/>
      <point x="563" y="342" type="curve"/>
      <point x="466" y="210" type="line"/>
      <point x="455" y="417" type="line"/>
      <point x="390" y="1140" type="line"/>
      <point x="100" y="1140" type="line"/>
      <point x="209" y="357" type="line"/>
    </contour>
    <contour>
      <point x="901" y="-19" type="line"/>
      <point x="1118" y="-7" type="line"/>
      <point x="1204" y="93" type="line" smooth="yes"/>
      <point x="1465" y="342"/>
      <point x="1665" y="669"/>
      <point x="1677" y="1003" type="curve" smooth="yes"/>
      <point x="1679" y="1080"/>
      <point x="1676" y="1110"/>
      <point x="1673" y="1140" type="curve"/>
      <point x="1419" y="1140" type="line"/>
      <point x="1422" y="1066"/>
      <point x="1399" y="902"/>
      <point x="1388" y="836" type="curve" smooth="yes"/>
      <point x="1353" y="628"/>
      <point x="1287" y="487"/>
      <point x="1194" y="339" type="curve"/>
      <point x="1099" y="210" type="line"/>
      <point x="1087" y="417" type="line"/>
      <point x="1026" y="1140" type="line"/>
      <point x="748" y="1140" type="line"/>
      <point x="844" y="357" type="line"/>
    </contour>
    <contour>
      <point x="948" y="1257" type="move" name="top"/>
    </contour>
  </outline>
</glyph>
<glyph name="z" format="1">
  <advance width="975"/>
  <unicode hex="007A"/>
  <outline>
    <contour>
      <point x="-37" y="52" type="line"/>
      <point x="10" y="0" type="line"/>
      <point x="233" y="128" type="line"/>
      <point x="425" y="305" type="line"/>
      <point x="996" y="1092" type="line"/>
      <point x="955" y="1140" type="line"/>
      <point x="714" y="997" type="line"/>
      <point x="530" y="825" type="line"/>
    </contour>
    <contour>
      <point x="153" y="929" type="line"/>
      <point x="803" y="929" type="line"/>
      <point x="959" y="1081" type="line"/>
      <point x="955" y="1140" type="line"/>
      <point x="182" y="1140" type="line"/>
    </contour>
    <contour>
      <point x="10" y="0" type="line"/>
      <point x="837" y="0" type="line"/>
      <point x="859" y="214" type="line"/>
      <point x="172" y="214" type="line"/>
      <point x="41" y="68" type="line"/>
    </contour>
    <contour>
      <point x="622" y="1257" type="move" name="top"/>
    </contour>
  </outline>
</glyph>
<glyph name="currency" format="1">
  <advance width="1540"/>
  <unicode hex="00A4"/>
  <outline>
    <contour>
      <point x="342" y="690" type="curve" smooth="yes"/>
      <point x="342" y="447"/>
      <point x="539" y="252"/>
      <point x="782" y="252" type="curve" smooth="yes"/>
      <point x="1025" y="252"/>
      <point x="1222" y="447"/>
      <point x="1222" y="690" type="curve" smooth="yes"/>
      <point x="1222" y="933"/>
      <point x="1025" y="1128"/>
      <point x="782" y="1128" type="curve" smooth="yes"/>
      <point x="539" y="1128"/>
      <point x="342" y="933"/>
    </contour>
    <contour>
      <point x="533" y="690" type="curve" smooth="yes"/>
      <point x="533" y="833"/>
      <point x="644" y="951"/>
      <point x="782" y="951" type="curve" smooth="yes"/>
      <point x="920" y="951"/>
      <point x="1031" y="833"/>
      <point x="1031" y="690" type="curve" smooth="yes"/>
      <point x="1031" y="548"/>
      <point x="920" y="430"/>
      <point x="782" y="430" type="curve" smooth="yes"/>
      <point x="644" y="430"/>
      <point x="533" y="548"/>
    </contour>
    <contour>
      <point x="346" y="116" type="line"/>
      <point x="576" y="346" type="line"/>
      <point x="448" y="473" type="line"/>
      <point x="218" y="243" type="line"/>
    </contour>
    <contour>
      <point x="997" y="1020" type="line"/>
      <point x="1125" y="892" type="line"/>
      <point x="1355" y="1122" type="line"/>
      <point x="1228" y="1250" type="line"/>
    </contour>
    <contour>
      <point x="215" y="1135" type="line"/>
      <point x="445" y="905" type="line"/>
      <point x="572" y="1032" type="line"/>
      <point x="342" y="1263" type="line"/>
    </contour>
    <contour>
      <point x="995" y="351" type="line"/>
      <point x="1225" y="121" type="line"/>
      <point x="1353" y="248" type="line"/>
      <point x="1123" y="478" type="line"/>
    </contour>
  </outline>
</glyph>
<glyph name="ordfeminine" format="1">
  <advance width="909"/>
  <unicode hex="00AA"/>
  <outline>
    <contour>
      <point x="616" y="735" type="line"/>
      <point x="809" y="735" type="line"/>
      <point x="962" y="1574" type="line"/>
      <point x="721" y="1524" type="line"/>
      <point x="612" y="957" type="line"/>
      <point x="624" y="952" type="line"/>
    </contour>
    <contour>
      <point x="344" y="735" type="curve" smooth="yes"/>
      <point x="543" y="735"/>
      <point x="675" y="919"/>
      <point x="729" y="1028" type="curve"/>
      <point x="711" y="1159" type="line"/>
      <point x="677" y="1061"/>
      <point x="539" y="889"/>
      <point x="439" y="889" type="curve" smooth="yes"/>
      <point x="354" y="889"/>
      <point x="330" y="945"/>
      <point x="330" y="1043" type="curve" smooth="yes"/>
      <point x="330" y="1202"/>
      <point x="427" y="1454"/>
      <point x="630" y="1454" type="curve" smooth="yes"/>
      <point x="677" y="1454"/>
      <point x="737" y="1430"/>
      <point x="752" y="1385" type="curve"/>
      <point x="836" y="1546" type="line"/>
      <point x="790" y="1562"/>
      <point x="711" y="1577"/>
      <point x="645" y="1577" type="curve" smooth="yes"/>
      <point x="326" y="1576"/>
      <point x="93" y="1301"/>
      <point x="93" y="1019" type="curve" smooth="yes"/>
      <point x="93" y="845"/>
      <point x="181" y="735"/>
    </contour>
  </outline>
</glyph>
<glyph name="degree" format="1">
  <advance width="928"/>
  <unicode hex="00B0"/>
  <outline>
    <contour>
      <point x="520" y="1089" type="curve" smooth="yes"/>
      <point x="422" y="1089"/>
      <point x="345" y="1174"/>
      <point x="347" y="1277" type="curve" smooth="yes"/>
      <point x="349" y="1384"/>
      <point x="424" y="1464"/>
      <point x="527" y="1464" type="curve" smooth="yes"/>
      <point x="626" y="1464"/>
      <point x="703" y="1381"/>
      <point x="701" y="1277" type="curve" smooth="yes"/>
      <point x="700" y="1169"/>
      <point x="624" y="1089"/>
    </contour>
    <contour>
      <point x="512" y="935" type="curve" smooth="yes"/>
      <point x="717" y="935"/>
      <point x="870" y="1081"/>
      <point x="873" y="1277" type="curve" smooth="yes"/>
      <point x="877" y="1464"/>
      <point x="729" y="1617"/>
      <point x="533" y="1617" type="curve" smooth="yes"/>
      <point x="329" y="1617"/>
      <point x="178" y="1470"/>
      <point x="175" y="1277" type="curve" smooth="yes"/>
      <point x="172" y="1089"/>
      <point x="317" y="935"/>
    </contour>
  </outline>
</glyph>
<glyph name="acute" format="1">
  <advance width="562"/>
  <unicode hex="00B4"/>
  <outline>
    <contour>
      <point x="138" y="1234" type="line"/>
      <point x="258" y="1280"/>
      <point x="499" y="1507"/>
      <point x="535" y="1575" type="curve"/>
      <point x="355" y="1744" type="line"/>
      <point x="34" y="1319" type="line"/>
    </contour>
    <contour>
      <point x="157" y="1255" type="move" name="_top"/>
    </contour>
  </outline>
</glyph>
<glyph name="cedilla" format="1">
  <advance width="482"/>
  <unicode hex="00B8"/>
  <outline>
    <contour>
      <point x="241" y="30" type="line"/>
      <point x="248" y="1"/>
      <point x="249" y="-65"/>
      <point x="247" y="-122" type="curve" smooth="yes"/>
      <point x="244" y="-248"/>
      <point x="169" y="-274"/>
      <point x="76" y="-274" type="curve" smooth="yes"/>
      <point x="45" y="-274"/>
      <point x="18" y="-268"/>
      <point x="1" y="-259" type="curve"/>
      <point x="-30" y="-436" type="line"/>
      <point x="-7" y="-452"/>
      <point x="112" y="-468"/>
      <point x="165" y="-468" type="curve" smooth="yes"/>
      <point x="349" y="-468"/>
      <point x="454" y="-381"/>
      <point x="454" y="-202" type="curve" smooth="yes"/>
      <point x="454" y="-117"/>
      <point x="429" y="-8"/>
      <point x="401" y="30" type="curve"/>
      <point x="330" y="34" type="line"/>
    </contour>
    <contour>
      <point x="318" y="-170" type="move" name="_btm"/>
    </contour>
  </outline>
</glyph>
<glyph name="ordmasculine" format="1">
  <advance width="900"/>
  <unicode hex="00BA"/>
  <outline>
    <contour>
      <point x="445" y="725" type="curve" smooth="yes"/>
      <point x="697" y="723"/>
      <point x="933" y="897"/>
      <point x="933" y="1224" type="curve" smooth="yes"/>
      <point x="933" y="1447"/>
      <point x="791" y="1588"/>
      <point x="582" y="1589" type="curve" smooth="yes"/>
      <point x="345" y="1591"/>
      <point x="99" y="1409"/>
      <point x="99" y="1088" type="curve" smooth="yes"/>
      <point x="99" y="863"/>
      <point x="258" y="726"/>
    </contour>
    <contour>
      <point x="464" y="871" type="curve" smooth="yes"/>
      <point x="382" y="872"/>
      <point x="336" y="961"/>
      <point x="336" y="1100" type="curve" smooth="yes"/>
      <point x="336" y="1226"/>
      <point x="387" y="1449"/>
      <point x="562" y="1450" type="curve" smooth="yes"/>
      <point x="658" y="1450"/>
      <point x="694" y="1362"/>
      <point x="694" y="1221" type="curve" smooth="yes"/>
      <point x="694" y="1082"/>
      <point x="657" y="870"/>
    </contour>
  </outline>
</glyph>
<glyph name="AE" format="1">
  <advance width="1874"/>
  <unicode hex="00C6"/>
  <outline>
    <contour>
      <point x="279" y="356" type="line"/>
      <point x="995" y="356" type="line"/>
      <point x="998" y="557" type="line"/>
      <point x="281" y="557" type="line"/>
    </contour>
    <contour>
      <point x="-125" y="0" type="line"/>
      <point x="178" y="0" type="line"/>
      <point x="887" y="1336" type="line"/>
      <point x="1011" y="1325" type="line"/>
      <point x="1000" y="1530" type="line"/>
      <point x="396" y="1530" type="line"/>
      <point x="375" y="1395" type="line"/>
      <point x="642" y="1368" type="line"/>
    </contour>
    <contour>
      <point x="794" y="0" type="line"/>
      <point x="1739" y="0" type="line"/>
      <point x="1765" y="223" type="line"/>
      <point x="1098" y="210" type="line"/>
      <point x="1162" y="684" type="line"/>
      <point x="1594" y="672" type="line"/>
      <point x="1618" y="893" type="line"/>
      <point x="1189" y="887" type="line"/>
      <point x="1247" y="1319" type="line"/>
      <point x="1818" y="1314" type="line"/>
      <point x="1840" y="1530" type="line"/>
      <point x="1000" y="1530" type="line"/>
    </contour>
    <contour>
      <point x="1095" y="1700" type="move" name="top"/>
    </contour>
  </outline>
</glyph>
<glyph name="eth" format="1">
  <advance width="1197"/>
  <unicode hex="00F0"/>
  <outline>
    <contour>
      <point x="78" y="435" type="curve" smooth="yes"/>
      <point x="78" y="221"/>
      <point x="214" y="-16"/>
      <point x="506" y="-16" type="curve" smooth="yes"/>
      <point x="908" y="-16"/>
      <point x="1117" y="365"/>
      <point x="1117" y="836" type="curve" smooth="yes"/>
      <point x="1117" y="1113"/>
      <point x="1028" y="1383"/>
      <point x="803" y="1584" type="curve" smooth="yes"/>
      <point x="702" y="1673"/>
      <point x="537" y="1766"/>
      <point x="411" y="1798" type="curve"/>
      <point x="359" y="1649" type="line"/>
      <point x="474" y="1618"/>
      <point x="580" y="1539"/>
      <point x="670" y="1451" type="curve" smooth="yes"/>
      <point x="770" y="1350"/>
      <point x="835" y="1248"/>
      <point x="853" y="1077" type="curve"/>
      <point x="813" y="1133"/>
      <point x="726" y="1157"/>
      <point x="635" y="1157" type="curve" smooth="yes"/>
      <point x="326" y="1157"/>
      <point x="78" y="890"/>
    </contour>
    <contour>
      <point x="370" y="423" type="curve" smooth="yes"/>
      <point x="370" y="682"/>
      <point x="453" y="995"/>
      <point x="641" y="995" type="curve" smooth="yes"/>
      <point x="774" y="995"/>
      <point x="840" y="876"/>
      <point x="837" y="822" type="curve" smooth="yes"/>
      <point x="836" y="775"/>
      <point x="820" y="631"/>
      <point x="811" y="575" type="curve" smooth="yes"/>
      <point x="777" y="343"/>
      <point x="669" y="152"/>
      <point x="535" y="152" type="curve" smooth="yes"/>
      <point x="428" y="152"/>
      <point x="370" y="279"/>
    </contour>
    <contour>
      <point x="571" y="1277" type="line"/>
      <point x="749" y="1476" type="line"/>
      <point x="766" y="1495" type="line"/>
      <point x="963" y="1717" type="line"/>
      <point x="855" y="1819" type="line"/>
      <point x="855" y="1819"/>
      <point x="696" y="1631"/>
      <point x="645" y="1584" type="curve"/>
      <point x="635" y="1562" type="line"/>
      <point x="455" y="1378" type="line"/>
    </contour>
  </outline>
</glyph>
<glyph name="Aogonek" format="1">
  <advance width="1311"/>
  <unicode hex="0104"/>
  <outline>
    <contour>
      <point x="729" y="-299" type="curve" smooth="yes"/>
      <point x="729" y="-383"/>
      <point x="799" y="-473"/>
      <point x="932" y="-473" type="curve" smooth="yes"/>
      <point x="1063" y="-473"/>
      <point x="1158" y="-424"/>
      <point x="1219" y="-364" type="curve"/>
      <point x="1173" y="-227" type="line"/>
      <point x="1117" y="-269"/>
      <point x="1077" y="-282"/>
      <point x="1032" y="-282" type="curve" smooth="yes"/>
      <point x="1001" y="-282"/>
      <point x="967" y="-269"/>
      <point x="967" y="-213" type="curve" smooth="yes"/>
      <point x="967" y="-144"/>
      <point x="1088" y="-55"/>
      <point x="1193" y="0" type="curve"/>
      <point x="1103" y="40" type="line"/>
      <point x="999" y="4" type="line"/>
      <point x="916" y="-35"/>
      <point x="729" y="-153"/>
    </contour>
    <component base="A" xOffset="6"/>
  </outline>
</glyph>
<glyph name="hbar" format="1">
  <advance width="1256"/>
  <unicode hex="0127"/>
  <outline>
    <contour>
      <point x="129" y="1262" type="line"/>
      <point x="761" y="1262" type="line"/>
      <point x="777" y="1392" type="line"/>
      <point x="145" y="1392" type="line"/>
    </contour>
    <component base="h"/>
  </outline>
</glyph>
<glyph name="iogonek" format="1">
  <advance width="653"/>
  <unicode hex="012F"/>
  <outline>
    <contour>
      <point x="176" y="4" type="line"/>
      <point x="93" y="-35"/>
      <point x="-94" y="-153"/>
      <point x="-94" y="-299" type="curve" smooth="yes"/>
      <point x="-94" y="-383"/>
      <point x="-24" y="-473"/>
      <point x="109" y="-473" type="curve" smooth="yes"/>
      <point x="240" y="-473"/>
      <point x="335" y="-424"/>
      <point x="396" y="-364" type="curve"/>
      <point x="350" y="-227" type="line"/>
      <point x="294" y="-269"/>
      <point x="254" y="-282"/>
      <point x="209" y="-282" type="curve" smooth="yes"/>
      <point x="178" y="-282"/>
      <point x="144" y="-269"/>
      <point x="144" y="-213" type="curve" smooth="yes"/>
      <point x="144" y="-144"/>
      <point x="265" y="-55"/>
      <point x="370" y="0" type="curve"/>
      <point x="280" y="40" type="line"/>
    </contour>
    <component base="idotless" xOffset="11"/>
    <component base="dotaccent" xOffset="295"/>
  </outline>
</glyph>
<glyph name="firsttonechinese" format="1">
  <advance width="617"/>
  <unicode hex="02C9"/>
  <outline>
    <contour>
      <point x="53" y="1718" type="line"/>
      <point x="596" y="1718" type="line"/>
      <point x="598" y="1897" type="line"/>
      <point x="55" y="1897" type="line"/>
    </contour>
    <contour>
      <point x="305" y="1700" type="move" name="_top"/>
    </contour>
  </outline>
</glyph>
<glyph name="breve" format="1">
  <advance width="721"/>
  <unicode hex="02D8"/>
  <outline>
    <contour>
      <point x="355" y="1300" type="curve" smooth="yes"/>
      <point x="581" y="1300"/>
      <point x="694" y="1476"/>
      <point x="705" y="1633" type="curve" smooth="yes"/>
      <point x="706" y="1644"/>
      <point x="706" y="1655"/>
      <point x="706" y="1666" type="curve"/>
      <point x="548" y="1666" type="line"/>
      <point x="530" y="1596"/>
      <point x="499" y="1482"/>
      <point x="366" y="1482" type="curve" smooth="yes"/>
      <point x="244" y="1482"/>
      <point x="219" y="1554"/>
      <point x="211" y="1628" type="curve" smooth="yes"/>
      <point x="210" y="1642"/>
      <point x="211" y="1655"/>
      <point x="211" y="1666" type="curve"/>
      <point x="50" y="1666" type="line"/>
      <point x="47" y="1654"/>
      <point x="43" y="1629"/>
      <point x="43" y="1614" type="curve" smooth="yes"/>
      <point x="43" y="1445"/>
      <point x="127" y="1300"/>
    </contour>
    <contour>
      <point x="344" y="1255" type="move" name="_top"/>
    </contour>
  </outline>
</glyph>
<glyph name="ogonek" format="1">
  <advance width="569"/>
  <unicode hex="02DB"/>
  <outline>
    <contour>
      <point x="1" y="-294" type="curve" smooth="yes"/>
      <point x="1" y="-378"/>
      <point x="61" y="-458"/>
      <point x="195" y="-458" type="curve" smooth="yes"/>
      <point x="326" y="-458"/>
      <point x="429" y="-393"/>
      <point x="491" y="-334" type="curve"/>
      <point x="447" y="-227" type="line"/>
      <point x="391" y="-269"/>
      <point x="351" y="-287"/>
      <point x="305" y="-287" type="curve" smooth="yes"/>
      <point x="274" y="-287"/>
      <point x="240" y="-274"/>
      <point x="240" y="-218" type="curve" smooth="yes"/>
      <point x="240" y="-144"/>
      <point x="364" y="-51"/>
      <point x="470" y="19" type="curve"/>
      <point x="379" y="59" type="line"/>
      <point x="300" y="23" type="line"/>
      <point x="218" y="-18"/>
      <point x="1" y="-132"/>
    </contour>
    <contour>
      <point x="306" y="-170" type="move" name="_btm"/>
    </contour>
  </outline>
</glyph>
<glyph name="perthousand" format="1">
  <advance width="2804"/>
  <unicode hex="2030"/>
  <outline>
    <contour>
      <point x="1953" y="398" type="curve" smooth="yes"/>
      <point x="1953" y="198"/>
      <point x="2056" y="62"/>
      <point x="2254" y="62" type="curve" smooth="yes"/>
      <point x="2528" y="62"/>
      <point x="2702" y="301"/>
      <point x="2702" y="539" type="curve" smooth="yes"/>
      <point x="2702" y="730"/>
      <point x="2616" y="859"/>
      <point x="2401" y="859" type="curve" smooth="yes"/>
      <point x="2142" y="859"/>
      <point x="1953" y="628"/>
    </contour>
    <contour>
      <point x="2151" y="407" type="curve" smooth="yes"/>
      <point x="2151" y="520"/>
      <point x="2221" y="695"/>
      <point x="2365" y="695" type="curve" smooth="yes"/>
      <point x="2447" y="695"/>
      <point x="2494" y="628"/>
      <point x="2494" y="522" type="curve" smooth="yes"/>
      <point x="2494" y="413"/>
      <point x="2433" y="227"/>
      <point x="2290" y="227" type="curve" smooth="yes"/>
      <point x="2202" y="227"/>
      <point x="2151" y="301"/>
    </contour>
    <component base="percent"/>
  </outline>
</glyph>
<glyph name="cedi" format="1">
  <advance width="1434"/>
  <unicode hex="20B5"/>
  <outline>
    <contour>
      <point x="806" y="1318" type="curve" name="hr01"/>
      <point x="650" y="199" type="line"/>
      <point x="506" y="255"/>
      <point x="451" y="428"/>
      <point x="456" y="661" type="curve" smooth="yes"/>
      <point x="463" y="1000"/>
      <point x="591" y="1247"/>
    </contour>
    <contour>
      <point x="704" y="-347" type="line"/>
      <point x="750" y="-15" type="line" name="hr02"/>
      <point x="950" y="-9"/>
      <point x="1109" y="52"/>
      <point x="1181" y="127" type="curve"/>
      <point x="1117" y="295" type="line"/>
      <point x="1032" y="235"/>
      <point x="932" y="182"/>
      <point x="778" y="179" type="curve" name="hr03"/>
      <point x="940" y="1339" type="line"/>
      <point x="940" y="1339" type="line"/>
      <point x="1078" y="1339"/>
      <point x="1185" y="1299"/>
      <point x="1210" y="1271" type="curve"/>
      <point x="1280" y="1492" type="line"/>
      <point x="1207" y="1514"/>
      <point x="1123" y="1545"/>
      <point x="969" y="1546" type="curve"/>
      <point x="1006" y="1814" type="line"/>
      <point x="876" y="1814" type="line"/>
      <point x="837" y="1537" type="line"/>
      <point x="445" y="1479"/>
      <point x="164" y="1134"/>
      <point x="164" y="644" type="curve"/>
      <point x="163" y="353"/>
      <point x="282" y="39"/>
      <point x="620" y="-10" type="curve" name="hr04"/>
      <point x="573" y="-347" type="line"/>
    </contour>
  </outline>
</glyph>
<glyph name="liraTurkish" format="1">
  <advance width="1461"/>
  <unicode hex="20BA"/>
  <outline>
    <contour>
      <point x="144" y="831" type="line" name="hr00"/>
      <point x="401" y="934" type="line"/>
      <point x="375" y="746" type="line"/>
      <point x="125" y="647" type="line"/>
      <point x="106" y="469" type="line"/>
      <point x="350" y="566" type="line"/>
      <point x="273" y="0" type="line"/>
      <point x="572" y="0" type="line" smooth="yes"/>
      <point x="1030" y="0"/>
      <point x="1332" y="217"/>
      <point x="1386" y="625" type="curve"/>
      <point x="1394" y="680" type="line"/>
      <point x="1100" y="680" type="line"/>
      <point x="1059" y="369"/>
      <point x="902" y="238"/>
      <point x="597" y="238" type="curve"/>
      <point x="597" y="235" type="line"/>
      <point x="596" y="238" type="line"/>
      <point x="661" y="689" type="line"/>
      <point x="992" y="820" type="line"/>
      <point x="1011" y="998" type="line"/>
      <point x="686" y="869" type="line"/>
      <point x="714" y="1060" type="line"/>
      <point x="1063" y="1200" type="line"/>
      <point x="1083" y="1382" type="line"/>
      <point x="740" y="1244" type="line"/>
      <point x="781" y="1530" type="line"/>
      <point x="482" y="1530" type="line"/>
      <point x="426" y="1118" type="line"/>
      <point x="163" y="1013" type="line"/>
    </contour>
  </outline>
</glyph>
<glyph name="trademark" format="1">
  <advance width="2120"/>
  <unicode hex="2122"/>
  <outline>
    <contour>
      <point x="898" y="734" type="line"/>
      <point x="1079" y="734" type="line"/>
      <point x="1169" y="1271" type="line"/>
      <point x="1197" y="1442" type="line"/>
      <point x="1232" y="1274" type="line"/>
      <point x="1361" y="726" type="line"/>
      <point x="1513" y="726" type="line"/>
      <point x="1799" y="1360" type="line"/>
      <point x="1833" y="1440" type="line"/>
      <point x="1817" y="1236" type="line"/>
      <point x="1785" y="734" type="line"/>
      <point x="1969" y="734" type="line"/>
      <point x="2000" y="1530" type="line"/>
      <point x="1698" y="1530" type="line"/>
      <point x="1460" y="957" type="line"/>
      <point x="1432" y="1114" type="line"/>
      <point x="1340" y="1530" type="line"/>
      <point x="1047" y="1530" type="line"/>
    </contour>
    <contour>
      <point x="331" y="733" type="line"/>
      <point x="512" y="734" type="line"/>
      <point x="603" y="1373" type="line"/>
      <point x="848" y="1373" type="line"/>
      <point x="867" y="1530" type="line"/>
      <point x="201" y="1530" type="line"/>
      <point x="176" y="1373" type="line"/>
      <point x="422" y="1373" type="line"/>
    </contour>
  </outline>
</glyph>
<glyph name="product" format="1">
  <advance width="1687"/>
  <unicode hex="220F"/>
  <outline>
    <contour>
      <point x="362" y="-171" type="line"/>
      <point x="663" y="-171" type="line"/>
      <point x="663" y="1301" type="line"/>
      <point x="1120" y="1301" type="line"/>
      <point x="1120" y="-171" type="line"/>
      <point x="1420" y="-171" type="line"/>
      <point x="1420" y="1301" type="line"/>
      <point x="1632" y="1301" type="line"/>
      <point x="1632" y="1522" type="line"/>
      <point x="153" y="1522" type="line"/>
      <point x="153" y="1301" type="line"/>
      <point x="362" y="1301" type="line"/>
    </contour>
  </outline>
</glyph>
<glyph name="summation" format="1">
  <advance width="1548"/>
  <unicode hex="2211"/>
  <outline>
    <contour>
      <point x="195" y="-108" type="line"/>
      <point x="221" y="-170" type="line"/>
      <point x="1327" y="-170" type="line"/>
      <point x="1327" y="42" type="line"/>
      <point x="611" y="42" type="line"/>
      <point x="1043" y="685" type="line"/>
      <point x="603" y="1300" type="line"/>
      <point x="1291" y="1300" type="line"/>
      <point x="1291" y="1522" type="line"/>
      <point x="225" y="1522" type="line"/>
      <point x="195" y="1442" type="line"/>
      <point x="744" y="679" type="line"/>
    </contour>
  </outline>
</glyph>
<glyph name="divisionslash" format="1">
  <advance width="854"/>
  <unicode hex="2215"/>
  <outline>
    <contour>
      <point x="105" y="-362" type="line"/>
      <point x="968" y="1597" type="line"/>
      <point x="744" y="1597" type="line"/>
      <point x="-118" y="-362" type="line"/>
    </contour>
  </outline>
</glyph>
<glyph name="integral" format="1">
  <advance width="1065"/>
  <unicode hex="222B"/>
  <outline>
    <contour>
      <point x="202" y="-218" type="curve"/>
      <point x="109" y="-391" type="line"/>
      <point x="160" y="-460"/>
      <point x="304" y="-518"/>
      <point x="439" y="-518" type="curve" smooth="yes"/>
      <point x="769" y="-518"/>
      <point x="891" y="-284"/>
      <point x="889" y="-16" type="curve" smooth="yes"/>
      <point x="886" y="413"/>
      <point x="477" y="807"/>
      <point x="474" y="1199" type="curve" smooth="yes"/>
      <point x="472" y="1375"/>
      <point x="539" y="1485"/>
      <point x="691" y="1485" type="curve" smooth="yes"/>
      <point x="781" y="1485"/>
      <point x="853" y="1440"/>
      <point x="874" y="1405" type="curve"/>
      <point x="996" y="1553" type="line"/>
      <point x="941" y="1640"/>
      <point x="817" y="1685"/>
      <point x="684" y="1685" type="curve" smooth="yes"/>
      <point x="358" y="1685"/>
      <point x="210" y="1470"/>
      <point x="213" y="1192" type="curve" smooth="yes"/>
      <point x="216" y="767"/>
      <point x="625" y="367"/>
      <point x="628" y="-28" type="curve" smooth="yes"/>
      <point x="630" y="-231"/>
      <point x="568" y="-314"/>
      <point x="416" y="-314" type="curve" smooth="yes"/>
      <point x="315" y="-314"/>
      <point x="228" y="-251"/>
    </contour>
  </outline>
</glyph>
<glyph name=".notdef" format="1">
  <advance width="1872"/>
  <outline>
    <contour>
      <point x="221" y="0" type="line"/>
      <point x="1637" y="0" type="line"/>
      <point x="1637" y="1416" type="line"/>
      <point x="221" y="1416" type="line"/>
    </contour>
    <contour>
      <point x="451" y="363" type="line"/>
      <point x="809" y="705" type="line"/>
      <point x="450" y="1068" type="line"/>
      <point x="573" y="1193" type="line"/>
      <point x="930" y="825" type="line"/>
      <point x="1282" y="1191" type="line"/>
      <point x="1410" y="1067" type="line"/>
      <point x="1047" y="709" type="line"/>
      <point x="1410" y="341" type="line"/>
      <point x="1288" y="219" type="line"/>
      <point x="926" y="587" type="line"/>
      <point x="579" y="219" type="line"/>
    </contour>
  </outline>
</glyph>
<glyph name="ij_acutecomb" format="1">
  <advance width="1246"/>
  <outline>
    <contour>
      <point x="102" y="0" type="line"/>
      <point x="378" y="0" type="line"/>
      <point x="535" y="1140" type="line"/>
      <point x="258" y="1140" type="line"/>
    </contour>
    <contour>
      <point x="412" y="1236" type="line"/>
      <point x="532" y="1282"/>
      <point x="773" y="1509"/>
      <point x="809" y="1577" type="curve"/>
      <point x="629" y="1746" type="line"/>
      <point x="308" y="1321" type="line"/>
    </contour>
    <contour>
      <point x="734" y="67" type="line"/>
      <point x="703" y="-155"/>
      <point x="667" y="-350"/>
      <point x="488" y="-350" type="curve" smooth="yes"/>
      <point x="480" y="-350"/>
      <point x="454" y="-348"/>
      <point x="442" y="-339" type="curve"/>
      <point x="372" y="-485" type="line"/>
      <point x="400" y="-505"/>
      <point x="458" y="-521"/>
      <point x="529" y="-521" type="curve" smooth="yes"/>
      <point x="761" y="-521"/>
      <point x="957" y="-331"/>
      <point x="1002" y="2" type="curve" smooth="yes"/>
      <point x="1158" y="1140" type="line"/>
      <point x="881" y="1140" type="line"/>
    </contour>
    <component base="acute" xOffset="885"/>
  </outline>
</glyph>
<glyph name="macron.cap" format="1">
  <advance width="617"/>
  <outline>
    <contour>
      <point x="36" y="1718" type="line"/>
      <point x="579" y="1718" type="line"/>
      <point x="592" y="1897" type="line"/>
      <point x="48" y="1897" type="line"/>
    </contour>
    <contour>
      <point x="305" y="1700" type="move" name="_top"/>
    </contour>
  </outline>
</glyph>
